<svg width="536" height="70" viewBox="0 0 536 70" fill="none" xmlns="http://www.w3.org/2000/svg">
<path d="M39.2 38.7L40 19.2H39.1L26.1 55.1L13.1 19.2H12.2L13 38.7V69.8H0V0H17.7L26.3 23.5H27.1L35.7 0H52.2V69.8H39.2V38.7Z" fill="black"/>
<path d="M64.0609 69.8V0H108.661V12.3H79.0609V28.3H107.661V40.6H79.0609V57.5H108.661V69.8H64.0609Z" fill="black"/>
<path d="M153.522 12.3V69.8H138.522V12.3H118.422V0H173.622V12.3H153.522Z" fill="black"/>
<path d="M183.983 69.8V0H228.583V12.3H198.983V28.3H227.583V40.6H198.983V57.5H228.583V69.8H183.983Z" fill="black"/>
<path d="M258.344 69.8H243.544V0H270.544C273.944 0 276.977 0.533332 279.644 1.6C282.31 2.6 284.544 4.06666 286.344 6C288.21 7.93333 289.61 10.2667 290.544 13C291.477 15.7333 291.944 18.8 291.944 22.2C291.944 27.1333 290.877 31.3667 288.744 34.9C286.61 38.4333 283.577 40.7667 279.644 41.9L293.344 69.8H276.944L265.244 43.9H258.344V69.8ZM266.944 32.3C270.477 32.3 272.91 31.6333 274.244 30.3C275.644 28.9667 276.344 26.7667 276.344 23.7V20.7C276.344 17.6333 275.644 15.4333 274.244 14.1C272.91 12.7667 270.477 12.1 266.944 12.1H258.344V32.3H266.944Z" fill="black"/>
<path d="M315.305 69.8L296.805 0H313.505L321.705 35.5L325.805 55.6H326.605L330.805 35.5L339.105 0H355.005L336.505 69.8H315.305Z" fill="black"/>
<path d="M399.366 69.8L394.966 53H375.866L371.566 69.8H356.366L375.266 0H396.466L415.366 69.8H399.366ZM385.866 14.5H385.066L378.266 40.9H392.666L385.866 14.5Z" fill="black"/>
<path d="M438.227 69.8H423.427V0H450.427C453.827 0 456.86 0.533332 459.527 1.6C462.193 2.6 464.427 4.06666 466.227 6C468.093 7.93333 469.493 10.2667 470.427 13C471.36 15.7333 471.827 18.8 471.827 22.2C471.827 27.1333 470.76 31.3667 468.627 34.9C466.493 38.4333 463.46 40.7667 459.527 41.9L473.227 69.8H456.827L445.127 43.9H438.227V69.8ZM446.827 32.3C450.36 32.3 452.793 31.6333 454.127 30.3C455.527 28.9667 456.227 26.7667 456.227 23.7V20.7C456.227 17.6333 455.527 15.4333 454.127 14.1C452.793 12.7667 450.36 12.1 446.827 12.1H438.227V32.3H446.827Z" fill="black"/>
<path d="M519.287 69.8L514.888 53H495.788L491.487 69.8H476.288L495.188 0H516.388L535.287 69.8H519.287ZM505.788 14.5H504.987L498.188 40.9H512.588L505.788 14.5Z" fill="black"/>
</svg>
